# xmcd CD database file
#
# Track frame offsets:
#	150
#	18737
#	40600
#	73135
#	104079
#	128144
#	147907
#	175550
#	219021
#	242690
#	267370
#
# Disc length: 3787 seconds
#
# Revision: 2
# Processed by: cddbd v1.5.2PL0 Copyright (c) Steve Scherf et al.
# Submitted via: CDex 1.70beta2
#
DISCID=9b0ec90b
DTITLE=Hank Shizzoe and The Directors - Live In Motown CD 2
DYEAR=2009
DGENRE=Blues
TTITLE0=Are We There Yet?
TTITLE1=The Sailor And The Queen
TTITLE2=I Can`t Get You Off Of My Mind
TTITLE3=Southern Movements
TTITLE4=Out Of Control
TTITLE5=Between Rhythm And Blues
TTITLE6=Isbjorn
TTITLE7=Six Blade Knife
TTITLE8=Green River
TTITLE9=Fuzzy
TTITLE10=Monochrome
EXTD=Recorded live at the Laboratorium in Stuttgard, Germany on January 27 th, 2008 YEAR: 2009
EXTT0=
EXTT1=
EXTT2=
EXTT3=
EXTT4=
EXTT5=
EXTT6=
EXTT7=
EXTT8=
EXTT9=
EXTT10=
PLAYORDER=
